<?xml version="1.0" encoding="UTF-8"?>
<svg id="Capa_1" data-name="Capa 1" xmlns="http://www.w3.org/2000/svg" viewBox="0 0 561.02 613.07">
  <defs>
    <style>
      .cls-1 {
        fill: #2a3b55;
      }

      .cls-2 {
        fill: #b8872a;
      }

      .cls-3 {
        isolation: isolate;
      }

      .cls-4 {
        fill: #b2bdce;
      }
    </style>
  </defs>
  <g class="cls-3">
    <path class="cls-1" d="M65.57,612.85h-2.22l-12.3-18.69v18.69h-2.22v-22.21h2.22l12.3,18.66v-18.66h2.22v22.21Z"/>
    <path class="cls-1" d="M89.85,607.57h-10.11l-1.94,5.28h-2.35l8.1-21.93h2.51l8.07,21.93h-2.35l-1.94-5.28ZM89.18,605.73l-4.39-12.01-4.39,12.01h8.77ZM87.75,585.8l-6.52,3.78v-1.72l6.52-4.07v2Z"/>
    <path class="cls-1" d="M106.19,590.63v13.98c0,2.2.52,3.83,1.57,4.89s2.48,1.59,4.31,1.59,3.25-.52,4.27-1.57c1.03-1.05,1.54-2.69,1.54-4.91v-13.98h2.22v13.95c0,2.82-.75,4.94-2.24,6.36-1.49,1.42-3.44,2.13-5.83,2.13s-4.34-.71-5.83-2.13c-1.49-1.42-2.24-3.54-2.24-6.36v-13.95h2.22Z"/>
    <path class="cls-1" d="M144.42,590.63v1.84h-6.17v20.37h-2.22v-20.37h-6.2v-1.84h14.59Z"/>
    <path class="cls-1" d="M156.53,590.63v22.21h-2.22v-22.21h2.22Z"/>
    <path class="cls-1" d="M168.35,595.86c.95-1.73,2.26-3.07,3.91-4.04,1.65-.96,3.5-1.45,5.53-1.45,2.48,0,4.6.59,6.37,1.76,1.77,1.18,3.06,2.83,3.86,4.97h-2.61c-.64-1.5-1.6-2.68-2.91-3.53-1.3-.85-2.88-1.27-4.72-1.27-1.63,0-3.1.38-4.4,1.14-1.3.76-2.33,1.86-3.07,3.29-.74,1.43-1.11,3.09-1.11,4.97s.37,3.54,1.11,4.96c.74,1.42,1.76,2.51,3.07,3.27,1.3.76,2.77,1.14,4.4,1.14,1.84,0,3.42-.42,4.72-1.25,1.3-.84,2.27-2,2.91-3.48h2.61c-.81,2.12-2.1,3.76-3.88,4.93-1.78,1.17-3.9,1.75-6.36,1.75-2.03,0-3.88-.48-5.53-1.45-1.65-.96-2.96-2.3-3.91-4.02-.95-1.72-1.43-3.67-1.43-5.85s.48-4.14,1.43-5.86Z"/>
    <path class="cls-1" d="M211.67,607.57h-10.11l-1.94,5.28h-2.35l8.1-21.93h2.51l8.07,21.93h-2.35l-1.94-5.28ZM211,605.73l-4.39-12.01-4.39,12.01h8.77Z"/>
    <path class="cls-1" d="M253.84,591.97c1.76.89,3.1,2.17,4.04,3.85s1.4,3.67,1.4,5.97-.47,4.26-1.4,5.93c-.93,1.66-2.28,2.93-4.04,3.81-1.76.88-3.87,1.32-6.32,1.32h-6.58v-22.21h6.58c2.46,0,4.57.45,6.32,1.33ZM254.59,608.57c1.62-1.62,2.43-3.88,2.43-6.79s-.81-5.21-2.43-6.85-3.98-2.46-7.07-2.46h-4.35v18.53h4.35c3.09,0,5.45-.81,7.07-2.43Z"/>
    <path class="cls-1" d="M271.95,592.44v8.29h8.42v1.84h-8.42v8.42h9.38v1.84h-11.6v-22.25h11.6v1.84h-9.38Z"/>
    <path class="cls-1" d="M310.01,612.31c-1.11-.51-1.99-1.22-2.62-2.13-.64-.91-.97-1.93-1.02-3.05h2.35c.11,1.08.58,2.03,1.43,2.84s2.09,1.22,3.72,1.22c1.5,0,2.7-.39,3.58-1.16.88-.77,1.32-1.75,1.32-2.94,0-.95-.24-1.72-.73-2.3-.49-.58-1.09-1.02-1.81-1.3-.72-.29-1.72-.6-2.99-.94-1.48-.4-2.66-.79-3.53-1.18-.87-.38-1.61-.97-2.23-1.78-.61-.8-.92-1.9-.92-3.27,0-1.14.3-2.17.89-3.07.59-.9,1.43-1.61,2.51-2.11,1.08-.51,2.32-.76,3.72-.76,2.06,0,3.71.5,4.97,1.51,1.26,1.01,1.99,2.3,2.18,3.89h-2.42c-.15-.91-.65-1.72-1.49-2.43-.85-.71-1.99-1.06-3.43-1.06-1.33,0-2.45.36-3.34,1.06-.89.71-1.33,1.68-1.33,2.91,0,.93.24,1.68.73,2.26.49.57,1.1,1.01,1.83,1.3.73.3,1.72.62,2.97.95,1.44.4,2.61.8,3.5,1.19.89.39,1.64.99,2.26,1.8.61.8.92,1.89.92,3.24,0,1.04-.28,2.02-.83,2.96-.55.93-1.37,1.68-2.45,2.26-1.08.57-2.37.86-3.88.86s-2.75-.25-3.86-.76Z"/>
    <path class="cls-1" d="M333.89,592.44v8.29h8.42v1.84h-8.42v8.42h9.38v1.84h-11.6v-22.25h11.6v1.84h-9.38Z"/>
    <path class="cls-1" d="M365.83,612.85l-5.5-9.28h-4.1v9.28h-2.23v-22.21h6.67c2.48,0,4.36.59,5.64,1.78,1.28,1.19,1.92,2.74,1.92,4.67,0,1.61-.46,2.98-1.38,4.12-.92,1.13-2.28,1.87-4.08,2.21l5.72,9.44h-2.67ZM356.24,601.75h4.48c1.74,0,3.05-.42,3.92-1.27s1.32-1.98,1.32-3.4-.42-2.59-1.27-3.38c-.85-.79-2.18-1.19-4-1.19h-4.45v9.25Z"/>
    <path class="cls-1" d="M396.63,590.63l-8.42,22.21h-2.54l-8.42-22.21h2.42l7.28,19.8,7.34-19.8h2.35Z"/>
    <path class="cls-1" d="M408.55,590.63v22.21h-2.23v-22.21h2.23Z"/>
    <path class="cls-1" d="M420.37,595.86c.95-1.73,2.26-3.07,3.91-4.04,1.65-.96,3.5-1.45,5.53-1.45,2.48,0,4.6.59,6.37,1.76,1.77,1.18,3.06,2.83,3.86,4.97h-2.61c-.63-1.5-1.6-2.68-2.91-3.53-1.3-.85-2.88-1.27-4.72-1.27-1.63,0-3.1.38-4.4,1.14-1.3.76-2.33,1.86-3.07,3.29-.74,1.43-1.11,3.09-1.11,4.97s.37,3.54,1.11,4.96c.74,1.42,1.76,2.51,3.07,3.27,1.3.76,2.77,1.14,4.4,1.14,1.84,0,3.42-.42,4.72-1.25,1.3-.84,2.27-2,2.91-3.48h2.61c-.81,2.12-2.1,3.76-3.88,4.93-1.78,1.17-3.9,1.75-6.36,1.75-2.03,0-3.88-.48-5.53-1.45-1.65-.96-2.96-2.3-3.91-4.02-.95-1.72-1.43-3.67-1.43-5.85s.48-4.14,1.43-5.86Z"/>
    <path class="cls-1" d="M453.04,590.63v22.21h-2.23v-22.21h2.23Z"/>
    <path class="cls-1" d="M468.83,611.62c-1.67-.96-2.99-2.31-3.96-4.04-.96-1.73-1.45-3.68-1.45-5.86s.48-4.14,1.45-5.86c.96-1.73,2.28-3.07,3.96-4.04,1.67-.96,3.54-1.45,5.59-1.45s3.95.48,5.62,1.45c1.67.96,2.99,2.31,3.94,4.04.95,1.73,1.43,3.68,1.43,5.86s-.48,4.14-1.43,5.86c-.95,1.73-2.27,3.07-3.94,4.04-1.67.96-3.55,1.45-5.62,1.45s-3.92-.48-5.59-1.45ZM478.88,609.98c1.31-.76,2.35-1.86,3.12-3.29.76-1.43,1.14-3.09,1.14-4.97s-.38-3.54-1.14-4.96c-.76-1.42-1.8-2.51-3.12-3.27s-2.8-1.14-4.45-1.14-3.14.38-4.45,1.14-2.35,1.85-3.11,3.27c-.76,1.42-1.14,3.07-1.14,4.96s.38,3.54,1.14,4.97c.76,1.43,1.8,2.53,3.11,3.29s2.8,1.14,4.45,1.14,3.14-.38,4.45-1.14Z"/>
    <path class="cls-1" d="M498.72,612.31c-1.11-.51-1.99-1.22-2.62-2.13-.64-.91-.97-1.93-1.02-3.05h2.35c.11,1.08.58,2.03,1.43,2.84s2.09,1.22,3.72,1.22c1.5,0,2.7-.39,3.58-1.16.88-.77,1.32-1.75,1.32-2.94,0-.95-.24-1.72-.73-2.3-.49-.58-1.09-1.02-1.81-1.3-.72-.29-1.72-.6-2.99-.94-1.48-.4-2.66-.79-3.53-1.18-.87-.38-1.61-.97-2.23-1.78-.61-.8-.92-1.9-.92-3.27,0-1.14.3-2.17.89-3.07.59-.9,1.43-1.61,2.51-2.11,1.08-.51,2.32-.76,3.72-.76,2.06,0,3.71.5,4.97,1.51,1.26,1.01,1.99,2.3,2.18,3.89h-2.42c-.15-.91-.65-1.72-1.49-2.43-.85-.71-1.99-1.06-3.43-1.06-1.33,0-2.45.36-3.34,1.06-.89.71-1.33,1.68-1.33,2.91,0,.93.24,1.68.73,2.26.49.57,1.1,1.01,1.83,1.3.73.3,1.72.62,2.97.95,1.44.4,2.61.8,3.5,1.19.89.39,1.64.99,2.26,1.8.61.8.92,1.89.92,3.24,0,1.04-.28,2.02-.83,2.96-.55.93-1.37,1.68-2.45,2.26-1.08.57-2.37.86-3.88.86s-2.75-.25-3.86-.76Z"/>
  </g>
  <g class="cls-3">
    <path class="cls-2" d="M29.04,540.37c-.74-1.37-1.81-2.41-3.2-3.14-1.39-.72-3.02-1.08-4.9-1.08-3.25,0-5.85,1.07-7.8,3.2-1.96,2.13-2.93,4.98-2.93,8.54,0,3.79,1.03,6.76,3.08,8.89,2.05,2.13,4.88,3.2,8.48,3.2,2.46,0,4.55-.62,6.25-1.88,1.7-1.25,2.94-3.05,3.73-5.4h-12.73v-7.39h21.82v9.33c-.74,2.5-2,4.83-3.78,6.98-1.78,2.15-4.04,3.89-6.77,5.22-2.74,1.33-5.83,1.99-9.27,1.99-4.07,0-7.69-.89-10.88-2.67-3.19-1.78-5.67-4.25-7.45-7.42-1.78-3.17-2.67-6.79-2.67-10.85s.89-7.69,2.67-10.88c1.78-3.19,4.25-5.67,7.42-7.45,3.17-1.78,6.78-2.67,10.85-2.67,4.93,0,9.08,1.19,12.47,3.58,3.38,2.39,5.62,5.69,6.72,9.91h-11.09Z"/>
    <path class="cls-2" d="M66.29,568.52l-8.56-15.54h-2.4v15.54h-10.03v-41.18h16.84c3.25,0,6.01.57,8.3,1.7,2.29,1.13,4,2.69,5.13,4.66,1.13,1.97,1.7,4.17,1.7,6.6,0,2.74-.77,5.18-2.32,7.33-1.55,2.15-3.82,3.68-6.83,4.58l9.5,16.31h-11.32ZM55.32,545.88h6.22c1.84,0,3.22-.45,4.14-1.35.92-.9,1.38-2.17,1.38-3.81s-.46-2.8-1.38-3.7c-.92-.9-2.3-1.35-4.14-1.35h-6.22v10.21Z"/>
    <path class="cls-2" d="M92.27,527.35v24.64c0,2.46.61,4.36,1.82,5.69,1.21,1.33,2.99,2,5.34,2s4.14-.67,5.4-2c1.25-1.33,1.88-3.23,1.88-5.69v-24.64h10.03v24.58c0,3.68-.78,6.79-2.35,9.33-1.56,2.54-3.67,4.46-6.31,5.75-2.64,1.29-5.58,1.94-8.83,1.94s-6.15-.63-8.71-1.91c-2.56-1.27-4.59-3.19-6.07-5.75-1.49-2.56-2.23-5.68-2.23-9.36v-24.58h10.03Z"/>
    <path class="cls-2" d="M134.92,536.99c1.76-3.19,4.21-5.67,7.36-7.45,3.15-1.78,6.72-2.67,10.71-2.67,4.89,0,9.07,1.29,12.55,3.87,3.48,2.58,5.81,6.1,6.98,10.56h-11.03c-.82-1.72-1.99-3.03-3.49-3.93-1.51-.9-3.22-1.35-5.13-1.35-3.09,0-5.59,1.08-7.51,3.23-1.92,2.15-2.87,5.03-2.87,8.62s.96,6.47,2.87,8.62c1.92,2.15,4.42,3.23,7.51,3.23,1.92,0,3.63-.45,5.13-1.35,1.5-.9,2.67-2.21,3.49-3.93h11.03c-1.17,4.46-3.5,7.97-6.98,10.53-3.48,2.56-7.67,3.84-12.55,3.84-3.99,0-7.56-.89-10.71-2.67-3.15-1.78-5.6-4.25-7.36-7.42-1.76-3.17-2.64-6.79-2.64-10.85s.88-7.69,2.64-10.88Z"/>
    <path class="cls-2" d="M186.39,566.24c-3.23-1.8-5.79-4.31-7.68-7.54-1.9-3.23-2.85-6.85-2.85-10.88s.95-7.65,2.85-10.85c1.9-3.21,4.46-5.71,7.68-7.51,3.23-1.8,6.78-2.7,10.65-2.7s7.42.9,10.65,2.7c3.23,1.8,5.77,4.3,7.63,7.51,1.86,3.21,2.79,6.83,2.79,10.85s-.94,7.66-2.82,10.88c-1.88,3.23-4.42,5.74-7.63,7.54-3.21,1.8-6.75,2.7-10.62,2.7s-7.42-.9-10.65-2.7ZM204.93,556.5c1.97-2.19,2.96-5.08,2.96-8.68s-.99-6.54-2.96-8.71c-1.98-2.17-4.6-3.26-7.89-3.26s-5.97,1.08-7.95,3.23c-1.98,2.15-2.96,5.06-2.96,8.74s.99,6.54,2.96,8.71c1.97,2.17,4.62,3.26,7.95,3.26s5.91-1.09,7.89-3.29Z"/>
    <path class="cls-2" d="M243.55,568.52l-8.56-15.54h-2.4v15.54h-10.03v-41.18h16.84c3.25,0,6.01.57,8.3,1.7,2.29,1.13,4,2.69,5.13,4.66,1.13,1.97,1.7,4.17,1.7,6.6,0,2.74-.77,5.18-2.32,7.33-1.55,2.15-3.82,3.68-6.83,4.58l9.5,16.31h-11.32ZM232.58,545.88h6.22c1.84,0,3.22-.45,4.14-1.35.92-.9,1.38-2.17,1.38-3.81s-.46-2.8-1.38-3.7c-.92-.9-2.3-1.35-4.14-1.35h-6.22v10.21Z"/>
    <path class="cls-2" d="M289.43,547.14c-1.1,1.98-2.78,3.57-5.04,4.78s-5.08,1.82-8.45,1.82h-6.22v14.78h-10.03v-41.18h16.25c3.29,0,6.06.57,8.33,1.7,2.27,1.13,3.97,2.7,5.1,4.69,1.13,1.99,1.7,4.28,1.7,6.86,0,2.39-.55,4.57-1.64,6.54ZM279.45,544.42c.94-.9,1.41-2.17,1.41-3.81s-.47-2.91-1.41-3.81c-.94-.9-2.37-1.35-4.28-1.35h-5.46v10.32h5.46c1.92,0,3.34-.45,4.28-1.35Z"/>
    <path class="cls-2" d="M304,566.24c-3.23-1.8-5.79-4.31-7.68-7.54-1.9-3.23-2.85-6.85-2.85-10.88s.95-7.65,2.85-10.85c1.9-3.21,4.46-5.71,7.68-7.51,3.23-1.8,6.78-2.7,10.65-2.7s7.42.9,10.65,2.7,5.77,4.3,7.63,7.51c1.86,3.21,2.79,6.83,2.79,10.85s-.94,7.66-2.82,10.88c-1.88,3.23-4.42,5.74-7.63,7.54-3.21,1.8-6.75,2.7-10.62,2.7s-7.42-.9-10.65-2.7ZM322.54,556.5c1.97-2.19,2.96-5.08,2.96-8.68s-.99-6.54-2.96-8.71c-1.98-2.17-4.6-3.26-7.89-3.26s-5.97,1.08-7.95,3.23c-1.98,2.15-2.96,5.06-2.96,8.74s.99,6.54,2.96,8.71c1.97,2.17,4.62,3.26,7.95,3.26s5.91-1.09,7.89-3.29Z"/>
    <path class="cls-2" d="M361.17,568.52l-8.56-15.54h-2.41v15.54h-10.03v-41.18h16.84c3.25,0,6.01.57,8.3,1.7,2.29,1.13,4,2.69,5.13,4.66,1.13,1.97,1.7,4.17,1.7,6.6,0,2.74-.77,5.18-2.32,7.33-1.55,2.15-3.82,3.68-6.83,4.58l9.5,16.31h-11.32ZM350.2,545.88h6.22c1.84,0,3.22-.45,4.14-1.35.92-.9,1.38-2.17,1.38-3.81s-.46-2.8-1.38-3.7c-.92-.9-2.3-1.35-4.14-1.35h-6.22v10.21Z"/>
    <path class="cls-2" d="M402.93,561.25h-15.37l-2.46,7.27h-10.5l14.9-41.18h11.62l14.9,41.18h-10.62l-2.46-7.27ZM400.35,553.51l-5.1-15.08-5.04,15.08h10.15Z"/>
    <path class="cls-2" d="M420.35,536.99c1.76-3.19,4.21-5.67,7.36-7.45,3.15-1.78,6.72-2.67,10.71-2.67,4.89,0,9.07,1.29,12.55,3.87,3.48,2.58,5.81,6.1,6.98,10.56h-11.03c-.82-1.72-1.99-3.03-3.49-3.93-1.51-.9-3.22-1.35-5.13-1.35-3.09,0-5.59,1.08-7.51,3.23-1.92,2.15-2.87,5.03-2.87,8.62s.96,6.47,2.87,8.62c1.92,2.15,4.42,3.23,7.51,3.23,1.92,0,3.63-.45,5.13-1.35,1.5-.9,2.67-2.21,3.49-3.93h11.03c-1.17,4.46-3.5,7.97-6.98,10.53-3.48,2.56-7.67,3.84-12.55,3.84-3.99,0-7.56-.89-10.71-2.67-3.15-1.78-5.6-4.25-7.36-7.42-1.76-3.17-2.64-6.79-2.64-10.85s.88-7.69,2.64-10.88Z"/>
    <path class="cls-2" d="M473.03,527.35v41.18h-10.03v-41.18h10.03Z"/>
    <path class="cls-2" d="M488.02,566.24c-3.23-1.8-5.79-4.31-7.68-7.54-1.9-3.23-2.85-6.85-2.85-10.88s.95-7.65,2.85-10.85c1.9-3.21,4.46-5.71,7.68-7.51,3.23-1.8,6.78-2.7,10.65-2.7s7.42.9,10.65,2.7,5.77,4.3,7.63,7.51c1.86,3.21,2.79,6.83,2.79,10.85s-.94,7.66-2.82,10.88c-1.88,3.23-4.42,5.74-7.63,7.54-3.21,1.8-6.75,2.7-10.62,2.7s-7.42-.9-10.65-2.7ZM506.55,556.5c1.97-2.19,2.96-5.08,2.96-8.68s-.99-6.54-2.96-8.71c-1.98-2.17-4.6-3.26-7.89-3.26s-5.97,1.08-7.95,3.23c-1.98,2.15-2.96,5.06-2.96,8.74s.99,6.54,2.96,8.71c1.97,2.17,4.62,3.26,7.95,3.26s5.91-1.09,7.89-3.29ZM505.47,519.07l-14.14,5.92v-6.92l14.14-6.8v7.8Z"/>
    <path class="cls-2" d="M561.02,568.52h-10.03l-16.78-25.4v25.4h-10.03v-41.18h10.03l16.78,25.52v-25.52h10.03v41.18Z"/>
  </g>
  <g>
    <g>
      <path class="cls-4" d="M105.66,196.82c0-12.6,1.36-24.88,3.91-36.72-2.85-.73-5.96-1.51-9.31-2.3-2.77,12.74-4.18,25.77-4.18,39.02,0,15.16,1.83,30.04,5.46,44.49,3.36-.82,6.46-1.6,9.29-2.32-3.38-13.49-5.18-27.62-5.18-42.16h0Z"/>
      <path class="cls-4" d="M457.37,157.85c-3.35.81-6.46,1.58-9.3,2.31,2.54,11.82,3.9,24.08,3.9,36.65,0,14.52-1.8,28.63-5.17,42.11,2.84.73,5.94,1.52,9.29,2.33,3.61-14.44,5.44-29.29,5.44-44.44,0-13.23-1.41-26.26-4.17-38.97h0Z"/>
      <path class="cls-4" d="M399.69,59.79c-2.23,2.61-4.29,5.05-6.18,7.32,19.97,17.66,35.82,39.87,45.95,64.99,2.73-1.09,5.69-2.29,8.87-3.6-.38-.94-.75-1.88-1.16-2.82-9.2-21.76-22.38-41.3-39.15-58.08-2.7-2.7-5.48-5.31-8.33-7.82h0Z"/>
      <path class="cls-4" d="M118.2,132.03c10.15-25.15,26.05-47.37,46.05-65.04-1.89-2.27-3.95-4.71-6.18-7.32-2.89,2.55-5.72,5.2-8.47,7.94-16.77,16.77-29.95,36.32-39.15,58.08-.38.91-.75,1.82-1.12,2.73,3.17,1.31,6.13,2.51,8.87,3.6h0Z"/>
      <path class="cls-4" d="M187.99,49.38c22.49-13.88,48.38-22.76,76.13-25.09-.2-2.96-.43-6.14-.71-9.55-19.23,1.6-37.92,6.18-55.74,13.71-8.61,3.64-16.86,7.91-24.74,12.78,1.8,2.93,3.47,5.64,5.06,8.15h0Z"/>
      <path class="cls-4" d="M293.74,24.31c27.74,2.37,53.61,11.28,76.07,25.18,1.58-2.51,3.26-5.22,5.06-8.15-7.94-4.91-16.25-9.21-24.92-12.88-17.74-7.5-36.35-12.08-55.49-13.7-.28,3.42-.51,6.59-.71,9.55h0Z"/>
    </g>
    <g>
      <path class="cls-2" d="M207.34,214.49c-.68-.19-1.24-.24-1.55-.14-.83.27-2.44,2.49-3.28,5.12l-7.37,2.39c-.38-.26-.8-.46-1.22-.65.97,4.35,1.46,8.84,1.41,13.34,1.27-.9,2.23-2.15,2.77-3.59l7.33-2.38c1.99,1.49,4.31,2.32,5.39,2.24-1.23-3.55-2.29-7.38-2.91-11.61-.23-1.58-.43-3.16-.58-4.73h0Z"/>
      <path class="cls-2" d="M355.14,219.47c-.81-2.61-2.41-4.84-3.32-5.13h-.04c-.28-.09-.73-.05-1.25.06-.16,1.6-.36,3.2-.6,4.82-.62,4.22-1.68,8.05-2.91,11.6,1.13-.07,3.25-.88,5.11-2.24l7.37,2.39c.57,1.52,1.62,2.84,3.01,3.75-.06-4.6.43-9.18,1.43-13.61-.52.2-1.02.45-1.49.76l-7.33-2.38h0Z"/>
      <path class="cls-2" d="M463.99,252.99c-14.26-3.3-25.02-6.07-32.29-8.31l.23-.71c-4.8,3.12-10.41,5-15.93,5-2.86,0-5.54-.48-7.96-1.4,2.19,5.18,4.32,10.86,5.06,17.02,1.15-.57,2.32-1.07,3.52-1.53.99-2.17,1.94-4.36,2.83-6.57l6.49.33c.99.05,2.01-.64,2.3-1.54l.68-2.08c7.17,2.44,17.5,6.53,31.02,12.26.18.08.35.14.53.2,3.45,1.12,7.16-.77,8.28-4.22.06-.18.11-.36.15-.55.82-3.54-1.39-7.06-4.92-7.88h0s0,0,0,0Z"/>
      <path class="cls-2" d="M406.45,182.64c-.09-2.19,1.36-4.22,3.57-4.77,2.48-.61,5,.91,5.6,3.39.02.07.03.14.05.21.13.68.24,1.36.36,2.03,4.91,1.07,9.57,3.05,13.71,5.82-.66-8.93-2.07-17.64-4.22-26.07l5.89-3.85c.82-.54,1.26-1.71.96-2.61l-.68-2.08c7.23-2.23,18-5,32.29-8.31.18-.04.37-.09.55-.15,3.45-1.12,5.34-4.83,4.22-8.28-.06-.18-.13-.36-.2-.53-1.42-3.34-5.27-4.9-8.62-3.49-13.48,5.71-23.81,9.8-31.02,12.26l-.68-2.08c-.3-.9-1.33-1.6-2.3-1.54l-7.18.36c-9.43-22.78-24.27-42.74-42.93-58.28l2.76-7.25c.35-.92.01-2.11-.76-2.67l-1.78-1.29c4.54-6.05,11.62-14.63,21.24-25.7.13-.14.24-.3.35-.45,2.13-2.93,1.48-7.05-1.46-9.17-.16-.11-.31-.22-.48-.31-3.11-1.87-7.15-.87-9.02,2.24-7.55,12.55-13.51,21.93-17.88,28.14l-1.78-1.29c-.77-.56-2.01-.51-2.78.11l-6.14,4.95c-20.13-12.35-43.38-20.11-68.3-21.8l-2.17-8.04c-.26-.95-1.24-1.72-2.18-1.72h-2.19c.11-7.57.8-18.66,2.07-33.28.02-.19.03-.38.03-.57,0-3.63-2.94-6.57-6.57-6.57-.19,0-.38,0-.57.03-3.62.31-6.29,3.5-5.97,7.11,1.27,14.59,1.95,25.68,2.07,33.28h-2.19c-.95,0-1.92.77-2.18,1.72l-2.2,8.13c-24.73,1.89-47.79,9.75-67.75,22.14l-6.66-5.38c-.77-.62-2-.67-2.78-.11l-1.78,1.29c-4.36-6.19-10.32-15.57-17.88-28.14-.1-.16-.2-.32-.31-.48-2.13-2.93-6.24-3.59-9.17-1.46-.16.11-.3.23-.45.36-2.74,2.37-3.03,6.52-.65,9.26,9.6,11.05,16.68,19.62,21.24,25.71l-1.78,1.29c-.77.56-1.11,1.76-.76,2.67l3.05,8.02c-18.25,15.44-32.78,35.15-42.04,57.57l-8.36-.42c-.99-.05-2.01.64-2.3,1.54l-.68,2.08c-7.17-2.44-17.5-6.53-31.02-12.26-.18-.08-.35-.14-.53-.2-3.45-1.12-7.16.77-8.28,4.22-.06.18-.11.36-.15.55-.82,3.54,1.39,7.06,4.92,7.88,14.26,3.3,25.02,6.07,32.29,8.31l-.68,2.08c-.3.9.14,2.07.96,2.61l6.93,4.52c-2,8.01-3.34,16.28-4,24.74,3.85-2.41,8.12-4.16,12.59-5.14.06-.49.11-.98.18-1.47.35-2.48,2.64-4.21,5.12-3.87.09.01.17.03.26.04,2.15.43,3.69,2.27,3.8,4.38.23,0,.47,0,.7.02,3.23.14,6.36.64,9.36,1.46.49-3.56,1.14-7.07,1.93-10.52.23-.18.41-.43.5-.72l.71-2.17,2.66.87c.55.18,1.14-.13,1.32-.67l.26-.82,19.37,8.18c2.46,1.04,5.17.7,7.25-.67l7.33,2.38c.81,2.61,2.41,4.84,3.32,5.13h.04c.59.17,1.81-.11,3.17-.73,1.04-4.63,2.42-9.11,4.17-13.37-.74-1.27-1.54-2.17-2.04-2.34-.83-.27-3.44.58-5.66,2.21l-7.37-2.39c-.8-2.12-2.51-3.87-4.84-4.63l-.16-.05c-.16-.05-.31-.09-.48-.13l-20.48-4.77.26-.82c.18-.55-.13-1.14-.67-1.32l-2.66-.87.71-2.17c.08-.23.09-.46.06-.69h0c7.16-16.47,17.93-31.03,31.31-42.64h0c.06-.03.13-.07.19-.11l1.85-1.35,1.65,2.26c.34.47,1,.57,1.46.23l.7-.51,10.86,18c1.39,2.29,3.77,3.6,6.25,3.71l4.53,6.24c-.89,2.59-.89,5.33-.33,6.1l.03.04c.26.33.89.65,1.73.93,3.85-3.66,8.05-6.81,12.58-9.4-.02-.81-.13-1.44-.34-1.72-.51-.7-3.13-1.56-5.88-1.54l-4.56-6.27c.6-2.18.24-4.61-1.19-6.58l-.1-.13c-.1-.13-.2-.26-.31-.38l-13.76-15.9.7-.51c.47-.34.57-1,.23-1.46l-1.65-2.26,1.85-1.35c.08-.06.15-.12.21-.19h0c14.81-8.93,31.72-14.73,49.8-16.48l.45-.04c.18.08.39.13.6.13h2.29v2.79c0,.58.47,1.05,1.05,1.05h.86l-1.8,20.95c-.23,2.66.94,5.13,2.88,6.68v7.71c-2.24,1.58-3.86,3.79-3.86,4.74v.05c.03.45.38,1.14.96,1.9,2.55-.24,5.16-.36,7.81-.37h0c2.56,0,5.07.13,7.54.35.62-.81.99-1.53.99-1.93,0-.87-1.62-3.1-3.86-4.7v-7.76c1.78-1.41,2.91-3.59,2.91-6.02v-.16c0-.16-.01-.33-.03-.49l-1.8-20.95h.86c.58,0,1.05-.47,1.05-1.05v-2.79h2.29c.27,0,.52-.07.74-.19l.04-.03c17.98,1.53,34.83,7.05,49.66,15.67.03.44.24.87.63,1.15l1.85,1.35-1.65,2.26c-.34.47-.24,1.12.23,1.46l.7.51-13.76,15.9c-1.75,2.02-2.26,4.7-1.6,7.1l-4.53,6.24c-2.74-.04-5.34.8-5.9,1.57l-.03.04c-.19.3-.31.84-.35,1.53,4.6,2.61,8.86,5.76,12.76,9.46.8-.27,1.39-.58,1.6-.88.51-.7.51-3.45-.36-6.07l4.56-6.27c2.26-.1,4.46-1.19,5.89-3.16l.09-.13c.09-.14.18-.27.27-.41l10.86-18,.7.51c.47.34,1.12.24,1.46-.23l1.65-2.26,1.85,1.35c.44.32,1,.37,1.47.18h0c13.05,11.35,23.62,25.48,30.76,41.48h0c-.6.36-.89,1.09-.67,1.78l.71,2.17-2.66.87c-.55.18-.85.77-.67,1.32l.26.82-20.48,4.77c-2.61.61-4.59,2.47-5.47,4.8l-7.33,2.38c-2.19-1.65-4.79-2.49-5.7-2.2l-.04.02c-.51.19-1.21.97-1.87,2.04,1.81,4.37,3.25,8.96,4.3,13.71,1.32.58,2.46.82,2.96.67.83-.27,2.44-2.49,3.28-5.12l7.37-2.39c1.88,1.25,4.31,1.66,6.63.9l.16-.05c.16-.06.31-.11.46-.18l19.37-8.18.26.82c.18.55.77.85,1.32.67l2.66-.87.71,2.17c.24.75,1.02,1.19,1.78,1.02.75,3.28,1.36,6.61,1.83,9.98,2.72-.67,5.53-1.07,8.44-1.21h.36l.05-.02h-.02ZM185.86,111.43c-3.85,3.57-7.56,7.72-11.13,12.46-3.56,4.73-6.51,9.44-8.84,14.13-1.14,2.29-3.9,3.25-6.21,2.16s-3.31-3.85-2.22-6.16c.03-.07.06-.13.1-.19,2.8-5.3,6.05-10.39,9.73-15.28,3.73-4.95,7.85-9.61,12.36-13.97,1.8-1.75,4.67-1.7,6.41.11.06.06.12.13.18.19,1.67,1.93,1.51,4.84-.37,6.56h0ZM255.14,72.54c-5.21.62-10.65,1.8-16.33,3.53-5.66,1.73-10.81,3.81-15.46,6.24-2.27,1.19-5.07.34-6.3-1.9-1.24-2.24-.41-5.06,1.83-6.29.06-.04.13-.07.19-.1,5.38-2.64,11-4.85,16.85-6.64,5.93-1.81,12-3.16,18.21-4.04,2.48-.35,4.78,1.38,5.13,3.86.01.09.02.17.03.26.21,2.54-1.63,4.8-4.16,5.1h0ZM341.18,81.19c-.04.08-.08.15-.13.23-1.28,2.2-4.08,3-6.32,1.8-4.63-2.48-9.75-4.64-15.4-6.47-5.63-1.83-11.05-3.08-16.24-3.76-2.54-.33-4.35-2.62-4.07-5.17.28-2.55,2.56-4.38,5.11-4.11.08,0,.14.02.22.03,5.92.93,11.79,2.33,17.61,4.23,5.89,1.92,11.64,4.3,17.23,7.13,2.23,1.14,3.13,3.87,1.99,6.1h-.01,0ZM398.78,140.14c-.08.04-.16.08-.23.11-2.33,1.03-5.06.03-6.17-2.27-2.28-4.73-5.17-9.48-8.66-14.29-3.48-4.79-7.12-8.99-10.93-12.58-1.86-1.76-1.97-4.68-.25-6.57,1.72-1.89,4.65-2.03,6.54-.32.06.05.11.1.16.15,4.25,4.23,8.17,8.82,11.77,13.77,3.64,5.02,6.9,10.31,9.75,15.91,1.14,2.23.26,4.97-1.97,6.1h0s0-.01,0-.01Z"/>
      <path class="cls-2" d="M128.7,253.18l.68,2.08c.3.9,1.33,1.6,2.3,1.54l7.67-.38c.96,2.4,1.98,4.76,3.06,7.1.8.33,1.58.69,2.35,1.07.74-6.17,2.86-11.85,5.06-17.02-2.42.92-5.1,1.4-7.96,1.4-5.63,0-11.36-1.95-16.23-5.2l.3.9c-7.23,2.23-18,5-32.29,8.31-.18.04-.37.09-.55.15-3.45,1.12-5.34,4.83-4.22,8.28.06.18.13.36.2.53,1.42,3.34,5.27,4.9,8.62,3.49"/>
    </g>
    <path class="cls-1" d="M407.43,282.95c-10.91,12.95-12.35,25.43-29.03,35.1-26.58,15.4-58.91-5.57-64.52-33.48-.08-.38-.2-1.67.44-.9,7.56,28.03,37.32,43.33,63.34,27.03,15.33-9.61,25.76-24.72,24.36-43.52-1.19-16.01-16.33-30.36-10.12-47.39,4.19-11.5,21.08-16.87,28.43-5.82,6.69,10.05-4.95,22.05-14.53,14.31,2.09,15.84,22.43,9.63,27.1-1.89,7.03-17.38-9.29-33.31-26.42-32.55-22.45,1-34.65,23.99-32.69,44.52,1.45,15.19,13.42,35.1-1.98,47.17-15.25,11.95-36.29,1.27-42.76-15.16-8.45-21.44,6.78-32.8,9.73-52.77,6.11-41.45-16.65-79.07-59.95-79.08-43.29.01-66.06,37.64-59.95,79.08,2.95,19.96,18.17,31.31,9.73,52.77-6.47,16.44-27.5,27.11-42.76,15.16-15.4-12.07-3.43-31.98-1.98-47.17,1.95-20.53-10.24-43.52-32.69-44.52-17.13-.77-33.45,15.17-26.42,32.55,4.67,11.54,25,17.73,27.1,1.89-9.58,7.75-21.23-4.25-14.53-14.31,7.36-11.05,24.25-5.67,28.43,5.82,6.2,17.02-8.93,31.38-10.12,47.39-1.4,18.8,9.02,33.92,24.36,43.52,26.02,16.31,55.78,1,63.34-27.03.64-.77.51.52.44.9-5.62,27.91-37.95,48.89-64.52,33.48-16.68-9.66-18.12-22.14-29.03-35.1-21.4-25.41-64.17-5.76-61.53,27.12,1.1,13.65,13.16,27.02,27.71,23.96,5.98-1.26,14.32-9.6,9.29-15.69-4.89,8.13-16.86,8.88-20.4-.82-4.33-11.86,5.89-23.37,18.07-22.31,5.61.49,10.03,5.97,13.4,10.17,5.17,6.44,8.09,13.82,12.58,20.43,6.25,9.2,18.81,16.71,29.29,20.22,16.76,5.61,36.05,1.49,49.15-10.25.32.35-3.05,4.64-3.52,5.19-10.12,11.74-23.48,15.3-38.61,13.61-13.53-1.51-25.07-7.41-39.05-5-27.3,4.72-46.86,35.45-30.75,60.65,9.57,14.97,37.1,20.59,44.89,2.05,2.12-5.05,1.64-17.04-6.02-16.16,2.18,4.89,2.17,8.28-1.88,12.03-9.18,8.5-21.73-.03-22.66-10.83-.86-10.02,3.84-16.08,12.77-19.81,20.11-8.4,35.31,6.58,55.28,3.41,23.98-3.81,47.19-26.04,57.33-47.34l7.13-19.5c-3.24,19.34-11.55,38.44-26.15,51.88-19.04,17.51-43.61,22.52-56.91,47.29-19.8,36.89,5.39,79.27,47.88,75.7,24.52-2.06,45.26-27.36,35.88-51.8-5.17-13.48-22.33-23.15-35.27-13.6-7.3,5.39-11.24,17.63-2.38,23.45,1.7.26,1.03-4.39,1.24-5.73,1.51-9.72,12.74-9.24,18.28-3.28,7.24,7.78,4.87,20.7-2.61,27.44-21.24,19.12-56.95-5.75-42.43-33.95,10.42-20.23,32.61-21.46,48.11-34.87,3.06-2.64,3.38-2.82,6.78-5,3.76-2.4,7.32-6.76,8.89-10.91,1.1-2.92,1.01-6.07,1.89-8.48,1.38-3.74,7.69-9.65,8.68-14.43l4.29-12.97,4.29,12.97c.99,4.77,7.3,10.69,8.68,14.43.89,2.41.8,5.56,1.89,8.48,1.57,4.16,5.14,8.52,8.89,10.91,3.4,2.18,3.73,2.35,6.78,5,15.5,13.41,37.7,14.63,48.11,34.87,14.52,28.19-21.19,53.06-42.43,33.95-7.49-6.73-9.85-19.66-2.61-27.44,5.54-5.95,16.77-6.44,18.28,3.28.21,1.35-.46,6,1.24,5.73,8.86-5.82,4.92-18.07-2.38-23.45-12.94-9.55-30.11.13-35.27,13.6-9.36,24.43,11.37,49.73,35.88,51.8,42.49,3.57,67.68-38.81,47.88-75.7-13.29-24.77-37.87-29.78-56.91-47.29-14.6-13.43-22.91-32.54-26.15-51.88l7.13,19.5c10.14,21.31,33.35,43.54,57.33,47.34,19.97,3.17,35.17-11.81,55.28-3.41,8.93,3.72,13.62,9.79,12.77,19.81-.93,10.81-13.47,19.33-22.66,10.83-4.06-3.75-4.06-7.13-1.88-12.03-7.65-.88-8.14,11.11-6.02,16.16,7.79,18.53,35.31,12.91,44.89-2.05,16.11-25.2-3.45-55.93-30.75-60.65-13.98-2.42-25.53,3.49-39.05,5-15.14,1.7-28.5-1.87-38.61-13.61-.48-.55-3.84-4.85-3.52-5.19,13.09,11.74,32.38,15.87,49.15,10.25,10.47-3.51,23.04-11.02,29.29-20.22,4.49-6.61,7.4-13.98,12.58-20.43,3.37-4.2,7.79-9.68,13.4-10.17,12.18-1.06,22.4,10.46,18.07,22.31-3.54,9.7-15.52,8.96-20.4.82-5.03,6.09,3.3,14.43,9.29,15.69,14.55,3.06,26.63-10.3,27.71-23.96,2.64-32.87-40.13-52.53-61.53-27.12h.03-.06ZM397.29,279.19l-2.81-1.7.99-6.26h2.24c1.14,2.66.48,5.37-.41,7.96h0ZM396.79,262.65l-1.4.3c-1.34-1.38-2.25-3.16-2.27-5.12,2.76-3.93,3.72,2.62,3.66,4.82h0ZM390.23,250.42l-2.27-4.57c1.4-4.62,6.52,4.41,2.27,4.57ZM391.86,288.15c2.57,2.29-2.1,7.28-4.26,7.51l-1.1-.98c-.21-.67,4.35-6.73,5.36-6.53ZM371.96,305.23c1.1-1.14,5.76-2.03,7.27-3.35,1.2-.14,1.42,1.95,1,2.67-.45.77-8.04,4.19-8.86,3.39-.02-.82,0-2.1.59-2.71ZM354.86,311.96c.31-1.32,8.55-2.3,8.48.7-1.47,1.12-9.06,1.79-8.48-.7ZM169.67,245.85l-2.27,4.57c-4.25-.16.88-9.19,2.27-4.57ZM160.33,279.19c-.89-2.59-1.55-5.3-.41-7.95h2.24s.99,6.25.99,6.25l-2.81,1.7h0ZM162.23,262.94l-1.4-.3c-.06-2.2.9-8.75,3.66-4.82-.02,1.95-.93,3.74-2.27,5.12h0ZM170.02,295.66c-2.15-.22-6.83-5.22-4.26-7.51,1-.19,5.56,5.85,5.36,6.53l-1.1.98ZM186.26,307.95c-.82.8-8.41-2.62-8.86-3.39-.42-.73-.2-2.81,1-2.67,1.51,1.32,6.17,2.22,7.27,3.35.58.6.61,1.89.59,2.71ZM194.28,312.66c-.07-3,8.18-2.01,8.48-.7.58,2.48-7.02,1.82-8.48.7ZM110.24,295.12c-1.39.19-5.06,4.5-5.78,4.35-3.24-.69,4.57-7.95,5.88-6.6l-.1,2.25h0ZM116.48,290.97c-.59-3.55,7.19-2.67,7.54-1.17-.03,2.42-7.15,1.74-7.54,1.17ZM130.18,292.15c.38-.48,1-.96,1.63-.99,1.14-.04,3.91,1.75,4.03,2.89.37,3.57-5.24.09-5.65-1.9h0ZM144.06,307c-1.58-1.87-5.51-3.87-2.3-6.09,1.27-.21,5.21,5.07,2.3,6.09ZM153.71,320.66c-.82.23-1.21.46-2.03-.02-1.17-.68-5.58-6.9-3.37-7.51,2.14-.25,6.27,6.27,5.4,7.53h0ZM161.27,331.06c3.03-1.24,6.48,1.42,8.48,3.53-2.69,2.93-7.6-.51-8.48-3.53ZM177.92,341.29c-.3-.31-.8-1.53-.61-1.75,1.61-1.06,8.53.18,8.52,2.12-.02,2.63-6.81.75-7.91-.37h0ZM200.56,344.28c-2.35-.59-6.17,1.44-7.22-1.2.07-1.22,6.85-.77,8.01-.23l-.79,1.43h0ZM126.24,383.96c.59-1.38,1.39-3.81,3.02-1.77,1.06,1.32-2.87,8.67-3.36,10.63-3.2-.58-.51-6.88.34-8.86h0ZM130.62,408.86c-1.79-1.33-3.84-3.41-4.62-5.53-.55-1.51-.82-3.43,1.27-2.89l3.35,8.43h0ZM135.84,377.08c-1.04.28-1.59-1.46-1.46-2.38.31-2.2,5.88-3.53,7.82-3.92l.7,1.08c-.01.95-6.05,4.96-7.06,5.24h0ZM150.42,367.36c2.39-.03,7.15-1.32,9.15.04,4.46,3.04-10.74,4.94-9.15-.04ZM177.11,372.57c-1.26,1.71-10.94-.3-8.72-3.76l.65-.06c.9-.03,7.23,1.52,7.68,2.03.23.26.45,1.35.4,1.8h0ZM200.87,374.42c-2.53,1.7-6.56,2.53-9.56,1.88-.21-.04-1.11-1.53-1.75-1.65,1.71-1.05,3.87-1.53,5.87-1.67.68-.05,6.69-.33,5.44,1.43h0ZM227.58,474.94l5.84-.07c.33,2.16-6.04,2.82-6.6,2.35l.76-2.28h0ZM210.86,472.58c2.7-.64,4.87,1.57,7.44,1.84l-.02,1.58c-.67,2.03-6.77-1.21-7.98-1.85l.56-1.56ZM197.35,463.54l.94-.82c.41.06.69.34,1.02.55.5.32,5,4.7,5.14,5.03.42.95-.17,1.48-.26,2.34-1.51-.94-7.69-5.13-6.83-7.08h0ZM193.8,456.48c-1.07.8-2.66-3.71-2.79-4.51-.31-1.85-.61-4.65,1.8-4.41,1.67,3.08,2.6,5.55,1,8.92h0ZM191.22,437.62c-.75-.16-.45-.84-.42-1.31.16-3.13,1.54-6.14,2.57-9.04l2.78.45c-.34,1.97-2.26,10.47-4.94,9.9h0ZM208.44,412.88c-.73,1.27-6.21,6.49-7.43,6.74-2.34.48-2.35-1.07-1.28-2.73.92-1.43,7.69-7.35,9.16-5.68.17.76-.13,1.09-.46,1.66h0ZM216.44,406.5c-.88-2.62,4.31-5.62,6.41-6.55.58-.26,2.87-1.22,3.27-.55,2.12,3.66-6.8,7.52-9.68,7.09h0ZM241.27,395.49c-.5.55-2.79,2.48-3.45,2.91-.5.33-1.77,1.28-2.29.57-2.11-3.74,4.72-7.2,7.14-8.94l1.11.71c.33,1.3-1.61,3.76-2.5,4.75h0ZM251.8,386.22c-.94-1.02,5.04-8.28,6.13-7.81l1.35,1.83c-1.48,2.54-4.16,6.9-7.48,5.97h0ZM264.06,245.71c-7.36-3.54-11.7-11.81-20.26-12.74,0,7.39,3.23,10.69,10.19,12.21,1.39.3,5.28-.25,5.8,1.79.71,2.78-5.34,3.18-7.15,2.86-4.36-.75-11.04-8.62-11.62-12.89-.22-1.63.26-3.33-.25-4.94-.39-1.24-1.75-2.1-2.76-3.1h0s-1.93-4.07,2.41-3.13c.49.16.98.33,1.46.51.08.03.17.06.25.09,3.91,1.46,7.71,3.56,10.86,6.15,1.54,1.26,12.2,11.83,11.09,13.19h0ZM324.21,474.87l5.84.07.76,2.28c-.56.46-6.93-.19-6.6-2.35h0ZM339.35,476l-.02-1.58c2.57-.28,4.74-2.47,7.44-1.84l.56,1.56c-1.21.65-7.31,3.89-7.98,1.85h0ZM353.45,470.62c-.09-.87-.68-1.39-.26-2.34.14-.33,4.64-4.71,5.14-5.03.33-.21.6-.49,1.02-.55l.94.82c.85,1.96-5.33,6.14-6.83,7.08h0ZM366.62,451.97c-.13.79-1.73,5.31-2.79,4.51-1.61-3.37-.67-5.84,1-8.92,2.4-.24,2.1,2.56,1.8,4.41h0ZM364.25,427.28c1.04,2.89,2.42,5.9,2.57,9.04.03.47.33,1.15-.42,1.31-2.68.57-4.6-7.92-4.94-9.9l2.78-.45h0ZM348.73,411.22c1.48-1.67,8.25,4.26,9.16,5.68,1.08,1.66,1.07,3.21-1.28,2.73-1.22-.25-6.69-5.48-7.43-6.74-.33-.58-.63-.9-.46-1.66h0ZM331.5,399.4c.4-.68,2.68.29,3.27.55,2.1.93,7.29,3.93,6.41,6.55-2.88.42-11.8-3.43-9.68-7.09h0ZM313.85,390.74l1.11-.71c2.42,1.74,9.25,5.19,7.14,8.94-.52.72-1.8-.24-2.29-.57-.66-.43-2.95-2.36-3.45-2.91-.89-.99-2.83-3.45-2.5-4.75h0ZM299.69,378.41c1.09-.47,7.06,6.79,6.13,7.81-3.32.92-6-3.43-7.48-5.97l1.35-1.83h0ZM305,249.84c-1.81.31-7.86-.09-7.15-2.86.52-2.03,4.41-1.48,5.8-1.79,6.96-1.52,10.19-4.82,10.19-12.21-8.57.93-12.91,9.19-20.26,12.74-1.11-1.36,9.55-11.94,11.09-13.19,3.16-2.58,6.96-4.69,10.86-6.15.08-.03.17-.06.25-.09.49-.18.97-.35,1.46-.51,4.34-.94,2.41,3.13,2.41,3.13h0c-1.02,1-2.37,1.87-2.76,3.1-.51,1.6-.03,3.31-.25,4.94-.58,4.27-7.26,12.14-11.62,12.89h0ZM431.62,403.32c-.77,2.12-2.83,4.21-4.62,5.53l3.35-8.43c2.08-.53,1.81,1.39,1.27,2.89h0ZM428.36,382.19c1.63-2.03,2.43.4,3.02,1.77.85,1.98,3.54,8.28.34,8.86-.5-1.95-4.42-9.3-3.36-10.63h0ZM415.43,370.77c1.93.4,7.5,1.73,7.82,3.92.13.92-.42,2.66-1.46,2.38-1.02-.28-7.05-4.28-7.06-5.24l.7-1.08h0ZM398.04,367.4c2-1.36,6.76-.07,9.15-.04,1.6,4.98-13.61,3.08-9.15.04h0ZM380.91,370.78c.45-.51,6.78-2.05,7.68-2.03l.65.06c2.22,3.46-7.47,5.47-8.72,3.76-.06-.45.17-1.53.4-1.8h0ZM362.18,373c2,.14,4.17.61,5.87,1.67-.64.12-1.54,1.6-1.75,1.65-3,.65-7.03-.19-9.56-1.88-1.26-1.76,4.75-1.48,5.44-1.43h0ZM357.07,344.28l-.79-1.43c1.16-.54,7.94-.99,8.01.23-1.05,2.63-4.86.62-7.22,1.2h0ZM379.71,341.29c-1.1,1.12-7.89,3-7.91.37-.01-1.93,6.91-3.18,8.52-2.12.19.23-.31,1.45-.61,1.75h0ZM387.87,334.59c2-2.11,5.46-4.77,8.48-3.53-.89,3.02-5.78,6.46-8.48,3.53ZM405.94,320.64c-.82.48-1.21.24-2.03.02-.87-1.25,3.25-7.77,5.4-7.53,2.22.62-2.19,6.83-3.37,7.51h0ZM413.56,307c-2.9-1.03,1.04-6.3,2.3-6.09,3.22,2.22-.73,4.23-2.3,6.09ZM421.8,294.05c.12-1.15,2.89-2.94,4.03-2.89.62.03,1.25.5,1.63.99-.41,1.99-6.02,5.48-5.65,1.9h0ZM441.15,290.97c-.4.57-7.52,1.26-7.54-1.17.35-1.5,8.14-2.38,7.54,1.17ZM453.16,299.46c-.72.15-4.4-4.14-5.78-4.35l-.1-2.25c1.32-1.35,9.13,5.91,5.88,6.6h0Z"/>
  </g>
</svg>